<svg xmlns="http://www.w3.org/2000/svg" viewBox="0 0 561.93 89.84"><defs><style>.cls-1,.cls-2{fill:#fff;}.cls-2{font-size:25px;font-family:Muli, Muli;letter-spacing:0.3em;}</style></defs><title>Asset 5@2x-wwwww</title><g id="Layer_2" data-name="Layer 2"><g id="Layer_1-2" data-name="Layer 1"><path class="cls-1" d="M306.93,16.47q-3.18,8.72-6.3,17.36h12.55Q310.08,25.06,306.93,16.47Zm0,0q-3.18,8.72-6.3,17.36h12.55Q310.08,25.06,306.93,16.47Zm0,0q-3.18,8.72-6.3,17.36h12.55Q310.08,25.06,306.93,16.47Zm0,0q-3.18,8.72-6.3,17.36h12.55Q310.08,25.06,306.93,16.47Zm0,0q-3.18,8.72-6.3,17.36h12.55Q310.08,25.06,306.93,16.47ZM416.79,19a4.71,4.71,0,0,0-.81-1.65,3.76,3.76,0,0,0-1.39-1.06,7.09,7.09,0,0,0-1.94-.57,15.59,15.59,0,0,0-2.54-.18H403V27.4h6.61a9.3,9.3,0,0,0,5.5-1.4c1.3-.94,1.95-2.5,1.95-4.7A8.5,8.5,0,0,0,416.79,19Zm0,0a4.71,4.71,0,0,0-.81-1.65,3.76,3.76,0,0,0-1.39-1.06,7.09,7.09,0,0,0-1.94-.57,15.59,15.59,0,0,0-2.54-.18H403V27.4h6.61a9.3,9.3,0,0,0,5.5-1.4c1.3-.94,1.95-2.5,1.95-4.7A8.5,8.5,0,0,0,416.79,19Zm-109.86-2.5q-3.18,8.72-6.3,17.36h12.55Q310.08,25.06,306.93,16.47Zm0,0q-3.18,8.72-6.3,17.36h12.55Q310.08,25.06,306.93,16.47ZM416.79,19a4.71,4.71,0,0,0-.81-1.65,3.76,3.76,0,0,0-1.39-1.06,7.09,7.09,0,0,0-1.94-.57,15.59,15.59,0,0,0-2.54-.18H403V27.4h6.61a9.3,9.3,0,0,0,5.5-1.4c1.3-.94,1.95-2.5,1.95-4.7A8.5,8.5,0,0,0,416.79,19ZM479,16.47q-3.17,8.72-6.3,17.36H485.2Q482.1,25.06,479,16.47Zm0,0q-3.17,8.72-6.3,17.36H485.2Q482.1,25.06,479,16.47ZM416.79,19a4.71,4.71,0,0,0-.81-1.65,3.76,3.76,0,0,0-1.39-1.06,7.09,7.09,0,0,0-1.94-.57,15.59,15.59,0,0,0-2.54-.18H403V27.4h6.61a9.3,9.3,0,0,0,5.5-1.4c1.3-.94,1.95-2.5,1.95-4.7A8.5,8.5,0,0,0,416.79,19Zm-109.86-2.5q-3.18,8.72-6.3,17.36h12.55Q310.08,25.06,306.93,16.47Zm-72-11v44a5.5,5.5,0,0,0,5.5,5.5H556.35a5.58,5.58,0,0,0,5.58-5.58V5.5a5.5,5.5,0,0,0-5.5-5.5h-316A5.5,5.5,0,0,0,234.93,5.5Zm40.53,41.63H270l-8.66-29.27-8.67,29.27h-5.37l-9.72-35.55h5l6.27,24.52,1.32,5.73q1.63-6.07,5.05-17.39t3.86-12.86h4.66q.47,1.51,3.89,12.83t5.12,17.35q1.35-6,4.13-17.26t3.2-12.92h4.81Zm42.77,0-3.66-9.5H299.36l-3.59,9.5h-5.08l13.79-35.55h5l13.87,35.55Zm37.54-31.62H344.35V47.13h-4.67V15.51H328.33V11.58h27.44ZM387,47.13H365V11.58h21.29v3.93H369.64V26.7h15.7v3.95h-15.7V43.2H387Zm32.79,0-3.91-10.45a16.22,16.22,0,0,0-1.53-3.29,4.14,4.14,0,0,0-1.82-1.55,7.62,7.62,0,0,0-3.1-.51H403v15.8h-4.66V11.58h11.38a29,29,0,0,1,3.93.24,14.06,14.06,0,0,1,3.33.86,8,8,0,0,1,2.65,1.67,7.44,7.44,0,0,1,1.67,2.73,11.49,11.49,0,0,1,.62,4,8.94,8.94,0,0,1-1.71,5.59,8.4,8.4,0,0,1-5.2,3,6,6,0,0,1,3.16,2.21,21,21,0,0,1,2.36,4.58l4.18,10.74Zm36.37-31.62H440.28V26.7H455v3.95H440.28V47.13h-4.66V11.58h20.51Zm34.13,31.62-3.67-9.5H471.38l-3.59,9.5h-5.07l13.79-35.55h5l13.87,35.55Zm36,0H505.05V11.58h4.66V43.2h16.53Zm31.07,0H536.12V11.58h4.66V43.2h16.53Zm-84.66-13.3H485.2q-3.1-8.77-6.25-17.36Q475.79,25.19,472.65,33.83ZM417.07,21.3a8.5,8.5,0,0,0-.28-2.33,4.71,4.71,0,0,0-.81-1.65,3.76,3.76,0,0,0-1.39-1.06,7.09,7.09,0,0,0-1.94-.57,15.59,15.59,0,0,0-2.54-.18H403V27.4h6.61a9.3,9.3,0,0,0,5.5-1.4C416.42,25.06,417.07,23.5,417.07,21.3ZM300.63,33.83h12.55q-3.1-8.77-6.25-17.36Q303.75,25.19,300.63,33.83Zm6.3-17.36q-3.18,8.72-6.3,17.36h12.55Q310.08,25.06,306.93,16.47ZM416.79,19a4.71,4.71,0,0,0-.81-1.65,3.76,3.76,0,0,0-1.39-1.06,7.09,7.09,0,0,0-1.94-.57,15.59,15.59,0,0,0-2.54-.18H403V27.4h6.61a9.3,9.3,0,0,0,5.5-1.4c1.3-.94,1.95-2.5,1.95-4.7A8.5,8.5,0,0,0,416.79,19ZM479,16.47q-3.17,8.72-6.3,17.36H485.2Q482.1,25.06,479,16.47Zm0,0q-3.17,8.72-6.3,17.36H485.2Q482.1,25.06,479,16.47ZM416.79,19a4.71,4.71,0,0,0-.81-1.65,3.76,3.76,0,0,0-1.39-1.06,7.09,7.09,0,0,0-1.94-.57,15.59,15.59,0,0,0-2.54-.18H403V27.4h6.61a9.3,9.3,0,0,0,5.5-1.4c1.3-.94,1.95-2.5,1.95-4.7A8.5,8.5,0,0,0,416.79,19Zm-109.86-2.5q-3.18,8.72-6.3,17.36h12.55Q310.08,25.06,306.93,16.47Zm0,0q-3.18,8.72-6.3,17.36h12.55Q310.08,25.06,306.93,16.47ZM416.79,19a4.71,4.71,0,0,0-.81-1.65,3.76,3.76,0,0,0-1.39-1.06,7.09,7.09,0,0,0-1.94-.57,15.59,15.59,0,0,0-2.54-.18H403V27.4h6.61a9.3,9.3,0,0,0,5.5-1.4c1.3-.94,1.95-2.5,1.95-4.7A8.5,8.5,0,0,0,416.79,19Zm0,0a4.71,4.71,0,0,0-.81-1.65,3.76,3.76,0,0,0-1.39-1.06,7.09,7.09,0,0,0-1.94-.57,15.59,15.59,0,0,0-2.54-.18H403V27.4h6.61a9.3,9.3,0,0,0,5.5-1.4c1.3-.94,1.95-2.5,1.95-4.7A8.5,8.5,0,0,0,416.79,19Zm-109.86-2.5q-3.18,8.72-6.3,17.36h12.55Q310.08,25.06,306.93,16.47Zm0,0q-3.18,8.72-6.3,17.36h12.55Q310.08,25.06,306.93,16.47Zm0,0q-3.18,8.72-6.3,17.36h12.55Q310.08,25.06,306.93,16.47Z"/><path class="cls-1" d="M0,46.63V12.08a.5.5,0,0,1,.5-.5h9.63c1.19,0,2.22,0,3.09.05s1.81.1,2.83.21a15,15,0,0,1,2.63.48,18.31,18.31,0,0,1,2.23.81,6.42,6.42,0,0,1,1.9,1.26,9.34,9.34,0,0,1,1.4,1.78,7.71,7.71,0,0,1,.91,2.42,14.91,14.91,0,0,1,.3,3.13,11.46,11.46,0,0,1-.92,4.83,7,7,0,0,1-2.76,3.11,13.19,13.19,0,0,1-4.3,1.64,29.69,29.69,0,0,1-5.82.5H6.7a.5.5,0,0,0-.5.5V46.63a.5.5,0,0,1-.5.5H.5A.5.5,0,0,1,0,46.63ZM6.2,26a.5.5,0,0,0,.5.5h4.82a20.05,20.05,0,0,0,3-.19,8.2,8.2,0,0,0,2.28-.7,3.33,3.33,0,0,0,1.55-1.46,5,5,0,0,0,.52-2.39,6.79,6.79,0,0,0-.47-2.52,2.19,2.19,0,0,0-.62-.84,8.83,8.83,0,0,0-.76-.6,2.78,2.78,0,0,0-1-.39l-1.15-.25A10.79,10.79,0,0,0,13.5,17L12,17H6.7a.5.5,0,0,0-.5.5Z"/><path class="cls-1" d="M35.71,46.63V12.08a.51.51,0,0,1,.5-.5H57.65a.5.5,0,0,1,.5.5v4.33a.5.5,0,0,1-.5.5H42.41a.49.49,0,0,0-.49.5V25.9a.49.49,0,0,0,.49.5H56.77a.5.5,0,0,1,.5.5v4.35a.5.5,0,0,1-.5.5H42.49a.5.5,0,0,0-.5.5v9.06a.5.5,0,0,0,.5.5H58.36a.5.5,0,0,1,.5.5v4.32a.5.5,0,0,1-.5.5H36.21A.5.5,0,0,1,35.71,46.63Z"/><path class="cls-1" d="M70.21,46.63V12.08a.5.5,0,0,1,.5-.5h5.2a.51.51,0,0,1,.5.5V41.31a.5.5,0,0,0,.5.5H92.36a.5.5,0,0,1,.5.5v4.32a.5.5,0,0,1-.5.5H70.71A.5.5,0,0,1,70.21,46.63Z"/><path class="cls-1" d="M102.11,46.63V12.08a.51.51,0,0,1,.5-.5h5.2a.5.5,0,0,1,.5.5V46.63a.5.5,0,0,1-.5.5h-5.2A.5.5,0,0,1,102.11,46.63Z"/><path class="cls-1" d="M131.72,47.69a23.39,23.39,0,0,1-7-1.07,13.66,13.66,0,0,1-5-2.7.5.5,0,0,1-.09-.63l2.15-3.63a.49.49,0,0,1,.71-.14,16.59,16.59,0,0,0,4.07,1.95,15.56,15.56,0,0,0,4.87.92,7.88,7.88,0,0,0,4.87-1.22,4.4,4.4,0,0,0,1.58-3.71,6.66,6.66,0,0,0-.15-1.57,3.38,3.38,0,0,0-.66-1.25,4.82,4.82,0,0,0-1.52-1.19,19.06,19.06,0,0,0-2.73-1.16c-.48-.17-1.31-.43-2.47-.81s-2-.66-2.56-.85a15.87,15.87,0,0,1-6.37-3.92,9,9,0,0,1-2-6.12A8.7,8.7,0,0,1,121,15.25,9.62,9.62,0,0,1,125.38,12a17.31,17.31,0,0,1,6.25-1.05,23.11,23.11,0,0,1,7.39.93,13.73,13.73,0,0,1,4.64,2.86.51.51,0,0,1,.06.68l-2.57,3.32a.48.48,0,0,1-.71.06,11.93,11.93,0,0,0-7.94-2.5,9.84,9.84,0,0,0-4.72,1A3.28,3.28,0,0,0,126,20.32a6.8,6.8,0,0,0,.17,1.65,3.28,3.28,0,0,0,.72,1.27,5.21,5.21,0,0,0,1.58,1.15,22.17,22.17,0,0,0,2.73,1.13c.41.15,1.26.43,2.55.85s2.26.74,2.9,1c2.89,1.15,4.91,2.48,6,4a10.14,10.14,0,0,1,1.71,6.25,10,10,0,0,1-1.05,4.68,8,8,0,0,1-2.86,3.16,13.51,13.51,0,0,1-4,1.71A19.31,19.31,0,0,1,131.72,47.69Z"/><path class="cls-1" d="M151.74,46.45,165.63,11.9a.5.5,0,0,1,.46-.32h5.62a.51.51,0,0,1,.47.32l14,34.54a.5.5,0,0,1-.47.69h-5.92a.5.5,0,0,1-.47-.31l-3.19-8a.5.5,0,0,0-.46-.32H162a.5.5,0,0,0-.46.32l-3.13,8a.49.49,0,0,1-.46.32h-5.73A.5.5,0,0,1,151.74,46.45Zm12.93-13.77h8.13a.51.51,0,0,0,.47-.67q-2.33-6.88-4-11.81a.5.5,0,0,0-.94,0q-1.5,4.34-4.11,11.81A.51.51,0,0,0,164.67,32.68Z"/><path class="cls-1" d="M195.41,46.63V12.08a.5.5,0,0,1,.5-.5h5.81a.52.52,0,0,1,.41.22l17,24.63a.5.5,0,0,0,.91-.28V12.08a.5.5,0,0,1,.5-.5h4.91a.5.5,0,0,1,.5.5V46.63a.5.5,0,0,1-.5.5H219.6a.48.48,0,0,1-.41-.22Q205.46,27.1,202.05,22.2a.5.5,0,0,0-.9.29V46.63a.5.5,0,0,1-.5.5h-4.74A.5.5,0,0,1,195.41,46.63Z"/><text class="cls-2" transform="translate(12.08 82.43)">THE BEAUTY OF LANGGAHAN</text></g></g></svg>