<svg xmlns="http://www.w3.org/2000/svg" viewBox="0 0 114 57"><defs><style>.cls-1{fill:#ef8201;}</style></defs><title>Asset 6@2x-wwwwww</title><g id="Layer_2" data-name="Layer 2"><g id="Layer_1-2" data-name="Layer 1"><path class="cls-1" d="M108.92,0H57V57h51.92A5.09,5.09,0,0,0,114,51.92V5.08A5.09,5.09,0,0,0,108.92,0ZM98.67,46.38H94.38l-9-30.76L76.36,46.38H72.11L62.66,10.83h3.91l6.91,27.42.88,4.23q1.68-6.3,5.11-17.75t4.14-13.9h3.64l8.17,27.49,1.08,3.94q1.47-6.13,4.22-17.57c1.84-7.63,3-12.24,3.35-13.86h3.73Z"/><path class="cls-1" d="M56,1V56H5.08A4.08,4.08,0,0,1,1,51.92V5.08A4.08,4.08,0,0,1,5.08,1H56m1-1H5.08A5.09,5.09,0,0,0,0,5.08V51.92A5.09,5.09,0,0,0,5.08,57H57V0Z"/><path class="cls-1" d="M17.88,45.88V11.34a.5.5,0,0,1,.5-.51H28c1.32,0,2.47,0,3.47.09s2,.17,3.11.34a13.55,13.55,0,0,1,2.78.7,10.71,10.71,0,0,1,2.24,1.18,6.54,6.54,0,0,1,1.74,1.78,8.76,8.76,0,0,1,1.06,2.53,13.33,13.33,0,0,1,.39,3.37,11.52,11.52,0,0,1-.61,3.94,7.47,7.47,0,0,1-1.73,2.83,8.48,8.48,0,0,1-2.82,1.85,15.66,15.66,0,0,1-3.71,1,31.22,31.22,0,0,1-4.58.31H24a.5.5,0,0,0-.51.5V45.88a.5.5,0,0,1-.5.5H18.38A.5.5,0,0,1,17.88,45.88Zm5.61-20.44A.51.51,0,0,0,24,26h5.25a22.34,22.34,0,0,0,2.62-.13A9.75,9.75,0,0,0,34,25.36a4.63,4.63,0,0,0,1.62-.9,3.82,3.82,0,0,0,1-1.47A5.5,5.5,0,0,0,37,20.87a7.52,7.52,0,0,0-.26-2.08,3.35,3.35,0,0,0-.83-1.45,4.78,4.78,0,0,0-1.23-.91,5.92,5.92,0,0,0-1.78-.52c-.75-.11-1.46-.18-2.11-.22s-1.51,0-2.56,0H24a.51.51,0,0,0-.51.51Z"/></g></g></svg>