<svg xmlns="http://www.w3.org/2000/svg" viewBox="0 0 57 114"><defs><style>.cls-1{fill:#ef8201;}</style></defs><title>Asset 6@2x-wwwww</title><g id="Layer_2" data-name="Layer 2"><g id="Layer_1-2" data-name="Layer 1"><path class="cls-1" d="M0,57v51.92A5.08,5.08,0,0,0,5.09,114H51.92A5.07,5.07,0,0,0,57,108.92V57Zm41.84,46h-4.3l-9-30.76L19.52,103H15.27L5.82,67.46H9.73l6.91,27.42.88,4.22q1.68-6.3,5.11-17.75t4.14-13.89h3.64L38.59,95l1.07,3.93q1.47-6.12,4.23-17.56l3.34-13.86H51Z"/><path class="cls-1" d="M51.92,1A4.08,4.08,0,0,1,56,5.08V56H1V5.08A4.09,4.09,0,0,1,5.09,1H51.92m0-1H5.09A5.09,5.09,0,0,0,0,5.08V57H57V5.08A5.08,5.08,0,0,0,51.92,0Z"/><path class="cls-1" d="M15.93,48.11V12.57H26.06c1.32,0,2.48,0,3.47.08s2,.17,3.11.34a15.1,15.1,0,0,1,2.79.7,10.64,10.64,0,0,1,2.23,1.18,6.34,6.34,0,0,1,1.75,1.79,8.85,8.85,0,0,1,1.06,2.52,13.39,13.39,0,0,1,.39,3.37,11.62,11.62,0,0,1-.61,3.95,7.81,7.81,0,0,1-1.73,2.83,8.62,8.62,0,0,1-2.82,1.84,15.74,15.74,0,0,1-3.72,1,29.76,29.76,0,0,1-4.57.31H21.55V48.11Zm5.62-20.43h5.76a24.92,24.92,0,0,0,2.61-.12,9.72,9.72,0,0,0,2.13-.47,4.65,4.65,0,0,0,1.62-.9,4,4,0,0,0,1-1.46A5.76,5.76,0,0,0,35,22.6a7.42,7.42,0,0,0-.25-2.07,3.39,3.39,0,0,0-.83-1.46,5.26,5.26,0,0,0-1.24-.91,5.59,5.59,0,0,0-1.78-.51,18.7,18.7,0,0,0-2.11-.22c-.66,0-1.51-.05-2.55-.05H21.55Z"/></g></g></svg>