<svg xmlns="http://www.w3.org/2000/svg" viewBox="0 0 582.5 784.53"><defs><style>.cls-1{fill:#ed8507;}.cls-2{fill:#eff0f2;}.cls-3{fill:#fafbfc;}.cls-4{fill:#afc5ea;}.cls-5{fill:#b4c8ea;}.cls-6{fill:#b5c7e3;}.cls-7{fill:#aac5ef;}.cls-8{fill:#e4e5e7;}.cls-9{fill:#fafafc;}.cls-10{fill:#f9fafb;}.cls-11{fill:#b3c7e7;}.cls-12{fill:#fafafb;}.cls-13{fill:#b9ccec;}.cls-14{fill:#fff;}</style></defs><title>Asset 8@2x-wwwwww</title><g id="Layer_2" data-name="Layer 2"><g id="Layer_1-2" data-name="Layer 1"><path class="cls-1" d="M0,284a79.15,79.15,0,0,0,3.88-9,12.47,12.47,0,0,0-.1-5.82c-1.22-6.12-1.09-11.92,3.05-17.05a19.4,19.4,0,0,1,7.92-5.85c14.13-5.83,28.32-11.53,42.21-17.88,5.68-2.6,10.91-6.41,15.85-10.3,2.7-2.12,4.41-5.53,6.45-8.43.25-.35,0-1.29-.3-1.74-4.2-6-8.36-12-12.73-17.83-1.67-2.24-2.74-4.45-2.45-7.32a33.24,33.24,0,0,0-.21-5,30.86,30.86,0,0,1,3.25-15.21c5.62-11.69,14.3-20.87,23.6-29.72,6.57-6.24,14.16-10.36,22.37-13.68a5.87,5.87,0,0,0,2.55-1.46c2-2.85,4.94-3.52,8.13-3.51,7.4,0,14.81,0,22.21.17,11.63.19,22.77-1.62,32.62-8.23,2.74-1.84,5.06-4.3,7.54-6.5a6.67,6.67,0,0,0,1.3-1.51c7.39-12.1,19.05-18.09,32-22.23A116.26,116.26,0,0,1,232,72.15c6.08-1.2,11.8.59,17.45,2.91,6.29,2.58,12.73,4.84,19.17,7a11.58,11.58,0,0,0,9.42-1,5.65,5.65,0,0,1,2.6-.67c13.72.16,27.46.15,41.17.71,4.57.18,9,2.13,13.62,2.83,13.9,2.13,26.42-.79,37-10.54,5.27-4.85,10.55-9.71,16.16-14.14A49.2,49.2,0,0,1,400.47,52,30.68,30.68,0,0,0,413,42.48c7.29-8.87,16.18-15.75,25.93-21.66,3.77-2.28,7.2-5.12,10.95-7.43,3.37-2.08,7-3.8,10.48-5.67A26.52,26.52,0,0,0,463,6.37c3-2.08,6-4.24,9-6.37h3.5c5.69,1.51,9.46,5.8,13.66,9.46,5.15,4.49,10.15,9.16,15.54,13.33,5.17,4,10.45,8.1,16.24,11,7.4,3.73,15.32,6.43,23.11,9.33,2.87,1.07,4.4,2.31,4.25,5.73-.34,7.8.62,15.74-.49,23.4-1.58,11.07-1.39,22.09-1.25,33.14a22,22,0,0,0,7.65,16.5c3.75,3.41,7.23,7.14,10.95,10.59,3,2.81,6.3,5.39,9.37,8.17a8.13,8.13,0,0,1,1.92,2.74c2.07,4.84,4,9.72,6,14.59v7c-2,4.7-3.58,9.59-5.94,14.08-5.7,10.81-12,21.32-17.57,32.18-3.64,7.08-6.5,14.55-9.75,21.83-.5,1.11-1,2.48-1.87,3.12a7.17,7.17,0,0,0-3.2,7.37c.86,5.51-1.17,9.52-5.22,13.2-5.11,4.64-9.76,9.78-14.58,14.73a46.44,46.44,0,0,1-17.66,11c-9.28,3.41-18.62,6.68-28,9.92a23.69,23.69,0,0,0-9.8,6.19,33.52,33.52,0,0,1-12.4,8.62,19.31,19.31,0,0,0-4.3,2.94q-14.08,10.75-28.16,21.53a4.38,4.38,0,0,1-2,.86c-6.29.69-12.56,1.55-18.87,1.85a18.59,18.59,0,0,0-9.84,3,31.69,31.69,0,0,0-9.64,10,43.91,43.91,0,0,1-5.2,7.3,32.06,32.06,0,0,0-7.58,14.94c-.9,3.8-2,7.57-3.15,11.29a12.49,12.49,0,0,0,.87,10.35c3.29,5.88,6.33,11.93,10,17.54s5.05,11.33,2,17.6c-2.26,4.62-4.56,9.21-7,13.75-6.38,12.05-12.85,24.05-19.24,36.1-2.68,5.06-5.27,10.19-7.87,15.3-1.63,3.19-3.72,5.24-7.77,4.95-3.87-.28-6.68,2.14-8.4,5.35-4.69,8.75-10.4,17-11.48,27.38-.56,5.37-3.12,10.06-6.49,14.38-2,2.58-3.34,5.72-5,8.61-2.64,4.71-5.07,9.55-7.95,14.1-5.69,9-11.59,17.87-17.48,26.74-6.17,9.3-13.93,17.17-22.18,24.62-2.7,2.45-5.13,5.22-7.59,7.92a16.28,16.28,0,0,1-11.25,5.76,7.09,7.09,0,0,0-3.94,1.81c-5.12,4.64-10.18,9.35-15.09,14.2-4.18,4.14-4.83,9.72-5.47,15.2a55.77,55.77,0,0,0-.24,7.2c.14,8.29-3.57,14.66-10.05,19.36-7.88,5.72-15.82,11.4-24.1,16.5a35.16,35.16,0,0,0-14.95,17.47c-2.78,7-5.84,14-8.05,21.19a49.9,49.9,0,0,1-12.8,20.81c-4.65,4.67-9.2,9.42-15.24,12.37a15.37,15.37,0,0,0-3,2.18A20.56,20.56,0,0,1,116,784.53l-17.4-.13c-1.38-4.52-3.24-9-4-13.59-1.19-7,0-13.95,1.67-20.76,3.84-15.89,10.56-30.61,18.41-44.86a32.89,32.89,0,0,0,2.28-5c3.41-9.81,7-19.58,10.06-29.48,3.69-11.73,7.49-23.47,10.3-35.42,1.78-7.56,2.09-15.5,2.65-23.29,1.17-16.53,2.66-33,6-49.27a53.82,53.82,0,0,1,2.71-8,10.81,10.81,0,0,0,.1-7.56c-1.18-3.46-2.14-7-3.32-10.45-2.17-6.38-1.74-13-1.88-19.54-.17-8.57.15-17.16-.09-25.73-.23-8.05-2.9-15.42-7-22.38-3.24-5.49-6.05-11.24-9.07-16.86a40.37,40.37,0,0,0-3.44-6.06c-6.89-8.74-9.58-19.05-11.52-29.68-.55-3-1.21-6-1.88-9a13.54,13.54,0,0,0-6.61-9c-10.67-6.28-21.29-12.67-32.11-18.68A77.43,77.43,0,0,1,53,364.8c-4.39-4.66-8.49-9.6-12.87-14.28a9.93,9.93,0,0,1-2.55-6.27c-.2-2.07-.41-4.14-.59-6.21-.48-5.35-2.07-10.22-5.72-14.34-5-5.66-9.88-11.49-14.94-17.13a60,60,0,0,0-6.38-6C6,297.29,1.82,294.16,0,289ZM512.6,34.66,512,34.6l-2-.21a36.26,36.26,0,0,0-4.21-4.76c-8.29-6.67-16.71-13.18-25-19.81-2-1.58-3.82-3.37-5.52-4.89-1.89,1.29-3.31,2.88-5,3.33a40.79,40.79,0,0,0-13.33,6.57c-5.16,3.63-9.94,7.91-15.4,11a77.12,77.12,0,0,0-20.73,17.35c-2.73,3.17-5.8,6.55-9.46,8.32A110,110,0,0,0,381,73.17c-9.56,9.61-20.83,14.08-34.3,13.89a282.23,282.23,0,0,1-39.49-3.29c-6.16-1-12.35-1.56-18.6-.35-9.05,1.75-18.2,2.5-27.2,0a134.35,134.35,0,0,1-17.54-6.22c-5.34-2.31-10.37-3.15-15.78-.43a110.87,110.87,0,0,1-13.15,6c-9.82,3.44-17.1,9.55-22.8,18.31-4.63,7.12-11.91,11.23-20.31,13-11.89,2.47-24,2.25-36,2.5-4.68.09-9.34,0-13.64,2.18q-7.77,3.93-15.47,7.94a14.62,14.62,0,0,0-3.56,2.28c-8.44,8.25-17.1,16.32-25.12,25a48.19,48.19,0,0,0-11.71,21.2c-1,3.92-.28,7.17,3.12,10a36.76,36.76,0,0,1,12.23,19c1.88,6.91.61,12.95-4.93,17.61a48.13,48.13,0,0,1-10.25,7c-12.88,6-25.8,11.86-39,17.06-7.17,2.83-13.3,6.56-18.43,12.26-2.25,2.5-3.06,4.87-2.3,8.12C8.06,271.6,8.26,277,5.68,282.24A7.9,7.9,0,0,0,5,284.38a7.43,7.43,0,0,0,2.83,7.51c6.85,5.76,14.38,10.84,19.22,18.7a10.37,10.37,0,0,0,2.2,2,29,29,0,0,1,10.17,20.95,22,22,0,0,0,4.62,12.9c8.33,10.51,18.59,19,28.75,27.62l1,1c1,.67,2,1.43,3.11,2,9.94,5.35,19.86,10.73,29.87,15.94a7.28,7.28,0,0,1,4,4.81c1.84,6.16,4,12.22,6.06,18.3,1.53,4.49,1.3,9.26,2.89,13.89,1.91,5.55,7,8.6,8.81,14,.75,2.31,2.53,4.28,3.69,6.48,1.49,2.83,2.61,5.87,4.28,8.58,5.46,8.82,9.33,18.12,9.42,28.68q.15,15.6.23,31.2l.27,9c2.24,5.59,3,11.7,6.44,16.87,2,3,1.68,6.15.28,9.51A100.58,100.58,0,0,0,149,567.33c-1.1,4.15-1.72,8.42-2.55,12.64q-.22,6.22-.47,12.46c-.63.89-1.74,1.75-1.83,2.7-1,10.18-1.71,20.38-2.63,30.57-.75,8.42-1.32,16.89-4.6,24.87a52.68,52.68,0,0,0-2.4,7.59,306.81,306.81,0,0,1-19.72,56c-6.21,13.52-12.6,26.89-17,41.15-1.15,3.75-1.8,7.41-.76,11.24,1.49,5.49,3,11,4.48,16.37,2.41-.2,4.39-.42,6.38-.52a28.83,28.83,0,0,0,17.63-6.68c6-5.1,12.19-10.09,17.88-15.56a46.16,46.16,0,0,0,12.06-17.82c3-8.44,6.35-16.75,9.45-25.15s8.94-14.47,16.87-18.56c1.92-1,3.86-1.94,5.78-2.92a65.26,65.26,0,0,0,24-21,13.58,13.58,0,0,0,2.52-9.87,49.31,49.31,0,0,1,0-8.42c.29-6.23,1.78-12,6.72-16.34,1.74-1.54,3.41-3.18,5-4.86a23.13,23.13,0,0,1,11.38-6.78c2.36-.58,5.07-1.38,6.72-3,9.5-9.32,19-18.65,28-28.48,10.7-11.74,18.63-25.48,26.59-39.16,3.92-6.74,8.08-13.34,12.23-19.94a45.75,45.75,0,0,0,6.9-18,27.47,27.47,0,0,1,1.76-7.41c1.89-4.15,4.62-7.93,6.36-12.13,1.88-4.57,4.52-7,9.66-5.92a2.38,2.38,0,0,0,1-.05c2.39-.5,4.62-1.13,5.86-3.65,6.29-12.73,12.65-25.42,19-38.13l2.45-5a47.09,47.09,0,0,1,2.44-5.35q6.07-10,12.39-19.92c1.06-1.65.95-2.79-.05-4.45-4.3-7.11-8.54-14.27-12.51-21.57a13.15,13.15,0,0,1-1.61-6.86c.4-5.45,1.54-10.85,2.15-16.29,1-8.81,3.52-16.82,9.84-23.42a27.88,27.88,0,0,0,5.07-7.67c2.93-6.42,7.93-9.2,14.73-9.69,5.8-.41,11.56-1.32,17.36-1.71A11.59,11.59,0,0,0,420,328q13.5-10.29,27.08-20.48c1.13-.84,2.36-1.54,3.53-2.33,4.25-2.87,8.72-5.48,12.68-8.7s7.93-5.94,12.8-7.48c5.85-1.86,11.62-4,17.41-6,9.2-3.26,18.3-6.73,25.37-13.87,5-5.1,10-10.29,15-15.38a11.9,11.9,0,0,1,3.7-2.85c2.66-1.06,3.44-3,3.24-5.53a24.24,24.24,0,0,1,3.64-14.46c2.21-3.79,4-7.84,5.91-11.78,3.1-6.24,5.78-12.73,9.39-18.65,7-11.52,13.74-23.17,17.92-36.08a10.41,10.41,0,0,0,.19-5.48c-1-4.09-2.58-8-3.83-12.09-.72-2.32-1.23-4.46-4.54-4.21-1.28.1-2.85-.93-4-1.84-1.66-1.36-3-3.11-4.53-4.62-3.4-3.3-6.73-6.67-10.29-9.78-2.87-2.51-5.15-5.4-5.6-9.14a134.53,134.53,0,0,1-1-15.67c0-9.21-.51-18.54.68-27.62,1.07-8,2-16,1.16-24a3.09,3.09,0,0,0-1.24-2.28c-10.64-4.39-21.34-8.65-32-13Z"/><path class="cls-2" d="M72.83,374.07C62.67,365.46,52.41,357,44.08,346.45a22,22,0,0,1-4.62-12.9A29,29,0,0,0,29.29,312.6a10.37,10.37,0,0,1-2.2-2c-4.84-7.86-12.37-12.94-19.22-18.7A7.43,7.43,0,0,1,5,284.38a7.9,7.9,0,0,1,.64-2.14C8.26,277,8.06,271.6,6.8,266.17c-.76-3.25,0-5.62,2.3-8.12,5.13-5.7,11.26-9.43,18.43-12.26,13.18-5.2,26.1-11.11,39-17.06a48.13,48.13,0,0,0,10.25-7c5.54-4.66,6.81-10.7,4.93-17.61a36.76,36.76,0,0,0-12.23-19c-3.4-2.82-4.09-6.07-3.12-10a48.19,48.19,0,0,1,11.71-21.2c8-8.66,16.68-16.73,25.12-25a14.62,14.62,0,0,1,3.56-2.28q7.69-4,15.47-7.94c4.3-2.18,9-2.09,13.64-2.18,12-.25,24.13,0,36-2.5,8.4-1.75,15.68-5.86,20.31-13,5.7-8.76,13-14.87,22.8-18.31a110.87,110.87,0,0,0,13.15-6c5.41-2.72,10.44-1.88,15.78.43a134.35,134.35,0,0,0,17.54,6.22c9,2.48,18.15,1.73,27.2,0,6.25-1.21,12.44-.62,18.6.35a282.23,282.23,0,0,0,39.49,3.29c13.47.19,24.74-4.28,34.3-13.89a110,110,0,0,1,30.29-21.69c3.66-1.77,6.73-5.15,9.46-8.32a77.12,77.12,0,0,1,20.73-17.35c5.46-3.07,10.24-7.35,15.4-11a40.79,40.79,0,0,1,13.33-6.57c1.73-.45,3.15-2,5-3.33,1.7,1.52,3.52,3.31,5.52,4.89,8.33,6.63,16.75,13.14,25,19.81a36.26,36.26,0,0,1,4.21,4.76,79.11,79.11,0,0,1-3.73,7.35q-12.88,20.13-26,40.15A18.79,18.79,0,0,1,471,89.44c-17.16,6.48-34.29,13-51.46,19.47-21.06,7.9-42.18,15.64-63.22,23.6a142.7,142.7,0,0,0-33.55,18.4c-3.18,2.33-6.66,4.32-10.8,4.59a15,15,0,0,0-2.57-.37c-2.72.05-5.46.46-8.16.27-7.4-.51-14.79-1.26-22.18-1.9-4.36-.38-8.72-.73-13.07-1.09-5.67-.47-11.34-1-17-1.35-1.47-.08-3,.61-4.49.95-3.08.68-6.15.93-9.08,2.64-4.38,2.55-6.18,7-9.17,10.54a5.51,5.51,0,0,0,2.26-1c1.71-1.3,3.45-2.58,5.05-4,2.93-2.63,4.46-2.78,7.69-.52.73.51,1.5,1,2.26,1.44l.49-.54c-1-1.51-2-3-3.18-4.81a19.09,19.09,0,0,1,4-.68c7.85.45,15.7.92,23.54,1.55,6.26.51,12.49,1.3,18.74,1.9,4.2.4,8.4.9,12.61,1,6.12.15,12.24,0,18.36-.07.6,0,1.26-.69,1.77-1.18,2.42-2.34,4.56-5,7.23-7a135.09,135.09,0,0,1,31.54-16.93c20.34-7.91,40.86-15.35,61.29-23,13.67-5.13,27.32-10.33,41-15.45,3.35-1.26,6.78-2.34,10.42-3.59.15,1.77.26,3,.36,4.13l.71.46c1.53-1.27,3.5-2.26,4.53-3.86Q491.14,70.89,505,48.62c2.8-4.5,5.09-9.31,7.62-14,10.69,4.3,21.39,8.56,32,13a3.09,3.09,0,0,1,1.24,2.28c.81,8.06-.09,16-1.16,24-1.19,9.08-.71,18.41-.68,27.62a134.53,134.53,0,0,0,1,15.67c.45,3.74,2.73,6.63,5.6,9.14,3.56,3.11,6.89,6.48,10.29,9.78,1.54,1.51,2.87,3.26,4.53,4.62,1.11.91,2.68,1.94,4,1.84,3.31-.25,3.82,1.89,4.54,4.21,1.25,4,2.79,8,3.83,12.09a10.41,10.41,0,0,1-.19,5.48c-4.18,12.91-10.87,24.56-17.92,36.08-3.61,5.92-6.29,12.41-9.39,18.65-2,3.94-3.7,8-5.91,11.78a24.24,24.24,0,0,0-3.64,14.46c.2,2.52-.58,4.47-3.24,5.53a11.9,11.9,0,0,0-3.7,2.85c-5,5.09-10,10.28-15,15.38-7.07,7.14-16.17,10.61-25.37,13.87-5.79,2.05-11.56,4.15-17.41,6-4.87,1.54-8.87,4.29-12.8,7.48s-8.43,5.83-12.68,8.7c-1.17.79-2.4,1.49-3.53,2.33Q433.47,317.7,420,328a11.59,11.59,0,0,1-6.48,2.75c-5.8.39-11.56,1.3-17.36,1.71-6.8.49-11.8,3.27-14.73,9.69a27.88,27.88,0,0,1-5.07,7.67c-6.32,6.6-8.87,14.61-9.84,23.42-.61,5.44-1.75,10.84-2.15,16.29a13.15,13.15,0,0,0,1.61,6.86c4,7.3,8.21,14.46,12.51,21.57,1,1.66,1.11,2.8.05,4.45q-6.33,9.87-12.39,19.92a47.09,47.09,0,0,0-2.44,5.35c-2.34-4.12-6.35-6.05-10.48-7.58-7.09-2.62-14.22-5.15-21.45-7.3-5.37-1.59-10.9-3.18-16.44-3.59-8.56-.62-16.71,2.1-24.7,5-.14.05-.19.36-.54,1.13,2.67-.35,4.94-.57,7.18-1,4.15-.72,8.25-1.88,12.43-2.26,9.89-.89,19.21,1.87,28.46,5s16.33,9,23.09,15.6c-6.33,12.71-12.69,25.4-19,38.13-1.24,2.52-3.47,3.15-5.86,3.65a2.38,2.38,0,0,1-1,.05c-5.14-1.13-7.78,1.35-9.66,5.92-1.74,4.2-4.47,8-6.36,12.13a27.47,27.47,0,0,0-1.76,7.41,45.75,45.75,0,0,1-6.9,18c-4.15,6.6-8.31,13.2-12.23,19.94-8,13.68-15.89,27.42-26.59,39.16-9,9.83-18.5,19.16-28,28.48-1.65,1.61-4.36,2.41-6.72,3a23.13,23.13,0,0,0-11.38,6.78c-1.61,1.68-3.28,3.32-5,4.86-4.94,4.36-6.43,10.11-6.72,16.34a49.31,49.31,0,0,0,0,8.42,13.58,13.58,0,0,1-2.52,9.87,65.26,65.26,0,0,1-24,21c-1.92,1-3.86,1.92-5.78,2.92-7.93,4.09-13.74,10.08-16.87,18.56s-6.45,16.71-9.45,25.15a46.16,46.16,0,0,1-12.06,17.82c-5.69,5.47-11.84,10.46-17.88,15.56a28.83,28.83,0,0,1-17.63,6.68c-2,.1-4,.32-6.38.52-1.48-5.39-3-10.88-4.48-16.37-1-3.83-.39-7.49.76-11.24,4.39-14.26,10.78-27.63,17-41.15a306.81,306.81,0,0,0,19.72-56,52.68,52.68,0,0,1,2.4-7.59c3.28-8,3.85-16.45,4.6-24.87.92-10.19,1.67-20.39,2.63-30.57.09-1,1.2-1.81,1.83-2.7.35,10.45.84,20.89,1,31.35a56.09,56.09,0,0,1-3.08,20.53c-1.07,2.87-2.31,5.69-3.32,8.58-.19.56.31,1.35.59,2.4,6.9-10.7,8.12-22,7.87-33.59-.16-6.88-.74-13.74-1-20.62-.16-5,.11-10-.12-15-.09-2.06-1-4.09-1.5-6.14.83-4.22,1.45-8.49,2.55-12.64a100.58,100.58,0,0,1,4.29-12.94c1.4-3.36,1.69-6.56-.28-9.51-3.45-5.17-4.2-11.28-6.44-16.87,2.5-.52,3.9.64,4.7,2.92.88,2.5,1.86,5,2.83,7.43.56,1.43,1.19,2.84,1.79,4.26l1.28-.38c-.3-1.58-.29-3.31-1-4.7-2.83-5.82-5.86-11.54-8.84-17.28a7.64,7.64,0,0,0-1.07-1.29q-.1-15.6-.23-31.2c-.09-10.56-4-19.86-9.42-28.68-1.67-2.71-2.79-5.75-4.28-8.58-1.16-2.2-2.94-4.17-3.69-6.48-1.76-5.42-6.9-8.47-8.81-14-1.59-4.63-1.36-9.4-2.89-13.89-2.08-6.08-4.22-12.14-6.06-18.3a7.28,7.28,0,0,0-4-4.81c-10-5.21-19.93-10.59-29.87-15.94-1.09-.58-2.08-1.34-3.11-2,2.49-.83,5-1.57,7.46-2.55.62-.25,1-1.2,1.37-1.89.7-1.31,1-2.9,2-4q10.36-11.59,20.94-23c6.87-7.44,13.87-14.78,20.71-22.25a130.93,130.93,0,0,0,19.08-27.86c5.21-9.92,9.93-20.11,14.93-30.14a47.12,47.12,0,0,1,3.15-5,35.43,35.43,0,0,0,2.36-3.19c2.26-4.41,4.12-9.06,6.66-13.31,3.88-6.48,8.17-12.71,12.33-19,7.15-10.81,14.29-21.62,21.53-32.36,1.89-2.81,3.25-3,6.42-1.8.78.3,1.56.56,2.34.83-1.18-2.76-4.17-4.72-1.81-8,1.54-2.14,3.54-2.49,5.52-1.24a33.4,33.4,0,0,1,.8-5.86,34.05,34.05,0,0,1,2.65-5.3l-.87-.67a14.26,14.26,0,0,0-2.49,2c-1.2,1.48-2.14,3.16-3.28,4.69-7.65,10.21-15.56,20.24-22.91,30.66-6.75,9.56-12.82,19.59-19.35,29.31-1.45,2.15-3.65,3.79-5.38,5.78a7.69,7.69,0,0,0-2.07,3.36c-.81,5.23-3.52,9.6-6,14.1-3.22,5.91-7.08,11.58-9.41,17.82a176.56,176.56,0,0,1-17.81,34.43c-2.58,4-5.42,5.07-10,4.13a9.34,9.34,0,0,0-2.06.09l4,4.37c-4.42,4.9-8.71,9.72-13.07,14.47Q100,346.28,88.34,358.86a22,22,0,0,1-3,2.13,13.1,13.1,0,0,0-3.13,2.6C79.56,367.54,76.78,371.31,72.83,374.07ZM137,663.49c1.1-1.76,2.19-3.53,3.28-5.29l-.85-.78c-.5.42-1.31.75-1.46,1.27-.45,1.57-.65,3.21-1,4.82l-.12.19ZM344.5,242l-.21-.11.21.11c.2.61.21,1.42.62,1.79,2.12,1.92,3.77,4,2.53,7.42,3.7-2.52,5.65-.33,7.75,1.88a55.1,55.1,0,0,0,4.68,3.92c.2-.42.35-.57.33-.7a1.91,1.91,0,0,0-.32-.9c-2.74-3-2.68-6.27-1.07-9.69,1.52-3.23,3.15-6.41,4.67-9.64.81-1.72,1.48-3.49,2.21-5.24l-.62-.39a16.59,16.59,0,0,0-2.33,2.74c-2.09,4-4.07,8-6,12a6.2,6.2,0,0,1-4.61,3.64C350.08,244.65,348.57,243.34,344.5,242ZM154,465l-1.39-.3c.47,5.67,1.08,11.05,1.32,16.45a91.22,91.22,0,0,1-.45,9.62c-.13,2.22-.39,4.43-.43,6.65a33.26,33.26,0,0,0,.43,4.07L152.38,509l.7.13c.47-1.12,1-2.22,1.4-3.37,3.49-11.25,3.7-22.84,3.4-34.45C157.82,468.75,157.1,466,154,465Zm22-182.5c-3.43.24-4,.8-4,4.23q0,13.45,0,26.93a11.5,11.5,0,0,0,.48,2.33,35.26,35.26,0,0,1-1.3,8.94c-2,7.73-3,15.74-4.67,23.57-1.57,7.27-3.64,14.42-5.31,21.67-1.53,6.6-3,13.23-4.15,19.9-1.07,6-2,12.08-2.45,18.17-.2,2.52-1.05,3.85-3.3,4a29.67,29.67,0,0,1-5.84-.54,8.65,8.65,0,0,1-1.68-.54,7.14,7.14,0,0,0,2.13,2.8,53.53,53.53,0,0,1,4.88,4.22,4.26,4.26,0,0,1,.87,3.26c-.65,3-1.67,5.9-2.55,8.84-2,6.6-4,13.18-5.88,19.8-.84,2.93-.07,5,2,6.1a64.71,64.71,0,0,1,1.2-6.53c1.77-6.14,3.72-12.22,5.55-18.34.81-2.7,1.36-5.48,2.26-8.15,1-2.82,1.89-3.2,4.71-2.22,1.72.59,3.38,1.38,5.07,2.06l16.23,6.59c.57-2.77-1.64-2.76-2.8-3.29-5.14-2.32-10.38-4.42-15.57-6.63-6.6-2.82-6.58-2.84-5.37-9.89,1.54-9,2.91-17.95,4.64-26.87,3.79-19.56,10.34-38.54,12.62-58.43.74-6.41,1.73-12.79,2.16-19.21.36-5.39.05-10.83.08-16.24,0-4.62-.5-4.06,3.95-4,1.77,0,2.71-.42,3.23-2.23.87-3,2.33-5.85,3-8.88,1.22-5.28,3.88-5.11,7.77-2.8,5.22,3.09,10.56,6,15.92,8.79,2.82,1.49,4.84.61,5.77-2.34-3,.94-5.7.26-8.41-1.15-10.19-5.29-20.4-10.55-30.73-15.57-2.76-1.35-5.95-1.83-8.94-2.7l-.37,1a21.82,21.82,0,0,0,2.41,1.43c4.49,1.94,9,3.9,13.5,5.71,2.16.86,2.79,2,1.84,4.2-1.07,2.43-1.86,5-2.95,7.4A7.67,7.67,0,0,1,176,282.5Zm36.15,88.7c-.05.95-.09,1.77-.15,2.58-.38,4.63-.67,9.26-1.15,13.88-.71,6.92-1.62,13.82-2.31,20.74-.62,6.27-1.3,12.55-1.54,18.83-.37,9.61-.38,19.23-.53,28.85,0,2.21,0,4.43,0,6.83-1,0-1.73,0-2.45,0-4.7-.45-9.41-.86-14.1-1.39-6.16-.71-12.32-1.57-18.49-2.26-5.75-.64-11.52-1.23-17.29-1.68a19.66,19.66,0,0,0-4.37.65,1.59,1.59,0,0,0,1.2.79c4.08.66,8.29.87,12.2,2.06a81.38,81.38,0,0,0,25,4c6-.09,12,.32,17.91.78,3.05.23,5.75-1.85,5.38-4.91-.44-3.61-1.21-7.18-1.61-10.8-.52-4.69-1.32-9.43-1.09-14.1.32-6.35,1.43-12.66,2.3-19,1.2-8.7,2.84-17.35,3.62-26.08.59-6.49.12-13.08.12-19.75Zm32,166.42.85.5c.82-1.21,2-2.31,2.39-3.64,1.21-4.36,2.16-8.79,3.12-13.21,1.41-6.46,2.21-13.11,4.25-19.36,2.41-7.4,6-14.42,8.85-21.69q4.67-11.94,8.9-24.05,8.52-24.35,16.76-48.76c3.18-9.44,6-19,9-28.49,4.18-12.86,8.45-25.7,12.68-38.55.67-2,1.34-4.07,2.21-6.69-1.14.51-1.78.59-1.95.91a58.9,58.9,0,0,0-3.68,7.48c-2,5.62-3.7,11.36-5.61,17-3.76,11.17-7.81,22.25-11.32,33.5-4.1,13.14-7.6,26.46-11.65,39.61-6.32,20.49-13.1,40.82-23,60a67.72,67.72,0,0,0-4.75,12.54c-1.19,4.19-1.63,8.6-2.56,12.87C247.24,524.28,245.66,531,244.13,537.62ZM346.72,253.51l-1.2-.54a55.43,55.43,0,0,0-2.59,5.17c-4.41,11.55-8.72,23.14-13.1,34.7-2.23,5.9-4.51,11.77-6.76,17.66-.45,1.17-.72,2.28,1.59,2.29Zm27.57-33.89c2.31.71,4.5,1,6.33,2,5.62,3,11.06,6.39,16.66,9.45,3.66,2,7.55,3.53,11.86,2.37,2.7-.73,5.53-1.37,7.51-4.29-3.54,1-6.59,1.92-9.72,2.53a7,7,0,0,1-4.28-.46c-7.35-3.84-14.59-7.9-21.89-11.86-1.7-.93-2.18-2.06-1.07-3.82s1.89-3.37,2.83-5.07C382.3,210.35,377.5,217.5,374.29,219.62ZM178,648.2l.8.32c.72-1.1,1.84-2.13,2.09-3.33,1-4.94,1.58-10,2.64-14.89,1.84-8.47,3.93-16.89,5.9-25.33.13-.57.23-1.14.44-2.23-.79.59-1.26.75-1.4,1.07-1.36,3.07-3.16,6.05-3.89,9.27-2.09,9.18-3.76,18.46-5.54,27.72C178.59,643.24,178.35,645.73,178,648.2ZM350.76,214.61l.86-.57c-.85-2.64-1.63-5.31-2.58-7.91-2.51-6.86-4.47-13.69-1-20.88-.52-.75-.37-2.07-.59-3.13l-.76.11c-1.46,5.23-1.17,11.27-4.38,15.69-.07.24-.28.52-.21.7.25.64.43,1.47.92,1.82a11.44,11.44,0,0,1,4.41,6.42c.63,2.06,1.29,4.11,2.06,6.12A6.76,6.76,0,0,0,350.76,214.61ZM217.2,276.43c2.21-.16,4.09-.39,6-.41,3.89,0,6,2.59,5.11,6.34-.74,3.05-1.65,6.06-2.5,9.08-1.09,3.86,1.09,6.53,5.22,6.12-.35-.47-.6-.86-.91-1.22-2.33-2.78-2.37-5.73-1.07-9a21.79,21.79,0,0,0,1.42-6.43c.22-3.65-1.53-6.23-4.44-7.31S219.68,273.59,217.2,276.43Zm-109,10.5c0,.9.06,1.53.14,2.16.56,4.75,1.26,9.49,1.65,14.25a3.58,3.58,0,0,1-3.34,4.18,7.26,7.26,0,0,0-1.39.67l9.75,4.14c-1-2.68-2.46-5.1-2.83-7.67-.44-3,.1-6.11.1-9.18C112.23,292.21,111.92,289,108.15,286.93Zm49.72,261.48-7.73,25.06C155.73,569.32,158.81,559.61,157.87,548.41ZM332.5,231.5c-.31-1.09-2.46-3.35-2.81-4.05-1.57-3.21-1.46-6.64-1-10,.25-1.77-.27-2.15-1.7-2.48-2.71-.61-5.39-1.35-8.08-2-.54-.13-1.08-.23-1.63-.35l-.34.78a24.77,24.77,0,0,0,3.57,2.32c4,1.78,6,4.9,6.54,9.18A52.46,52.46,0,0,1,332.5,231.5Zm-80.9,56.07-.87-.54c-2.12,3.41-4.29,6.81-6.35,10.26s-3.22,3.86-6.94,2.63l-4.11-1.37c1.84,2.62,3.9,4.76,7.24,4.41,1.08-.12,2.65-.38,3.09-1.12C246.45,297.17,249,292.34,251.6,287.57ZM373.39,222l-.51-.41-.7,1,.47.31Z"/><path class="cls-3" d="M512.66,34.65c-2.53,4.66-4.82,9.47-7.62,14Q491.17,70.91,476.92,93c-1,1.6-3,2.59-4.53,3.86l-.71-.46c-.1-1.18-.21-2.36-.36-4.13-3.64,1.25-7.07,2.33-10.42,3.59-13.68,5.12-27.33,10.32-41,15.45-20.43,7.67-40.95,15.11-61.29,23a135.09,135.09,0,0,0-31.54,16.93c-2.67,2-4.81,4.68-7.23,7-.51.49-1.17,1.17-1.77,1.18-6.12.1-12.24.22-18.36.07-4.21-.11-8.41-.61-12.61-1-6.25-.6-12.48-1.39-18.74-1.9-7.84-.63-15.69-1.1-23.54-1.55a19.09,19.09,0,0,0-4,.68C242,157.52,283.5,197,284.5,198.5l-1,1c-.75-.48-41.52-39.36-42.25-39.87-3.23-2.26-4.76-2.11-7.69.52-1.6,1.44-3.34,2.72-5.05,4a5.51,5.51,0,0,1-2.26,1c3-3.57,4.79-8,9.17-10.54,2.93-1.71,6-2,9.08-2.64,4.53.37,9.06.66,13.58,1.12,5.5.55,11,1.31,16.47,1.85,6.08.6,12.19.91,18.25,1.63A50.21,50.21,0,0,0,312,155.5c4.14-.27,7.62-2.26,10.8-4.59a142.7,142.7,0,0,1,33.55-18.4c21-8,42.16-15.7,63.22-23.6,17.17-6.44,34.3-13,51.46-19.47a18.79,18.79,0,0,0,9.34-7.55q13-20,26-40.15a79.11,79.11,0,0,0,3.73-7.35l2,.21.59.06Z"/><path class="cls-3" d="M72.83,374.07c4-2.76,6.73-6.53,9.37-10.48a13.1,13.1,0,0,1,3.13-2.6,22,22,0,0,0,3-2.13q11.7-12.57,23.3-25.26c4.36-4.75,8.65-9.57,13.07-14.47l-4-4.37a9.34,9.34,0,0,1,2.06-.09c4.58.94,7.42-.16,10-4.13a176.56,176.56,0,0,0,17.81-34.43c2.33-6.24,6.19-11.91,9.41-17.82,2.45-4.5,5.16-8.87,6-14.1a7.69,7.69,0,0,1,2.07-3.36c1.73-2,3.93-3.63,5.38-5.78,6.53-9.72,12.6-19.75,19.35-29.31,7.35-10.42,15.26-20.45,22.91-30.66,1.14-1.53,2.08-3.21,3.28-4.69a14.26,14.26,0,0,1,2.49-2l.87.67a34.05,34.05,0,0,0-2.65,5.3,33.4,33.4,0,0,0-.8,5.86c-2-1.25-4-.9-5.52,1.24-2.36,3.28.63,5.24,1.81,8-.78-.27-1.56-.53-2.34-.83-3.17-1.22-4.53-1-6.42,1.8C199.14,201.21,192,212,184.85,222.83c-4.16,6.3-8.45,12.53-12.33,19-2.54,4.25-4.4,8.9-6.66,13.31a35.43,35.43,0,0,1-2.36,3.19,47.12,47.12,0,0,0-3.15,5c-5,10-9.72,20.22-14.93,30.14a130.93,130.93,0,0,1-19.08,27.86c-6.84,7.47-13.84,14.81-20.71,22.25q-10.55,11.44-20.94,23c-1,1.07-1.31,2.66-2,4-.37.69-.75,1.64-1.37,1.89-2.44,1-5,1.72-7.46,2.55Z"/><path class="cls-4" d="M361.21,452.65c-6.76-6.58-13.92-12.5-23.09-15.6s-18.57-5.89-28.46-5c-4.18.38-8.28,1.54-12.43,2.26-2.24.39-4.51.61-7.18,1,.35-.77.4-1.08.54-1.13,8-2.87,16.14-5.59,24.7-5,5.54.41,11.07,2,16.44,3.59,7.23,2.15,14.36,4.68,21.45,7.3,4.13,1.53,8.14,3.46,10.48,7.58Z"/><path class="cls-5" d="M146.41,580c.53,2,1.41,4.08,1.5,6.14.23,5,0,10,.12,15,.22,6.88.8,13.74,1,20.62.25,11.58-1,22.89-7.87,33.59-.28-1-.78-1.84-.59-2.4,1-2.89,2.25-5.71,3.32-8.58a56.09,56.09,0,0,0,3.08-20.53c-.15-10.46-.64-20.9-1-31.35Q146.18,586.2,146.41,580Z"/><path class="cls-6" d="M146.26,519a7.64,7.64,0,0,1,1.07,1.29c3,5.74,6,11.46,8.84,17.28.67,1.39.66,3.12,1,4.7l-1.28.38c-.6-1.42-1.23-2.83-1.79-4.26-1-2.47-1.95-4.93-2.83-7.43-.8-2.28-2.2-3.44-4.7-2.92Z"/><path class="cls-2" d="M512.6,34.66,512,34.6Z"/><path class="cls-3" d="M176,282.5a7.67,7.67,0,0,0,6-4.61c1.09-2.42,1.88-5,2.95-7.4.95-2.17.32-3.34-1.84-4.2-4.54-1.81-9-3.77-13.5-5.71-.85-.37-5.33-1.6-6.13-2.08.12-.33.88-1.67,1-2a105,105,0,0,1,12,4.36c10.33,5,20.54,10.28,30.73,15.57,2.71,1.41,5.37,2.09,8.41,1.15-.93,2.95-2.95,3.83-5.77,2.34-5.36-2.83-10.7-5.7-15.92-8.79-3.89-2.31-6.55-2.48-7.77,2.8-.7,3-2.16,5.88-3,8.88-.52,1.81-1.46,2.26-3.23,2.23-4.45-.07-3.93-.63-3.95,4,0,5.41.28,10.85-.08,16.24-.43,6.42-1.42,12.8-2.16,19.21-2.28,19.89-8.83,38.87-12.62,58.43-1.73,8.92-3.1,17.91-4.64,26.87-1.21,7.05-1.23,7.07,5.37,9.89,5.19,2.21,10.43,4.31,15.57,6.63,1.16.53,3.37.52,2.8,3.29L164,423c-1.69-.68-3.35-1.47-5.07-2.06-2.82-1-3.75-.6-4.71,2.22-.9,2.67-1.45,5.45-2.26,8.15-1.83,6.12-3.78,12.2-5.55,18.34a64.71,64.71,0,0,0-1.2,6.53c-2-1.11-2.81-3.17-2-6.1,1.89-6.62,3.92-13.2,5.88-19.8.88-2.94,1.9-5.85,2.55-8.84a4.26,4.26,0,0,0-.87-3.26,53.53,53.53,0,0,0-4.88-4.22,7.14,7.14,0,0,1-2.13-2.8,8.65,8.65,0,0,0,1.68.54,29.67,29.67,0,0,0,5.84.54c2.25-.15,3.1-1.48,3.3-4,.47-6.09,1.38-12.16,2.45-18.17,1.18-6.67,2.62-13.3,4.15-19.9,1.67-7.25,3.74-14.4,5.31-21.67,1.7-7.83,2.66-15.84,4.67-23.57a35.26,35.26,0,0,0,1.3-8.94c.16-3.46.34-6.92.5-10.39.18-4.12.11-8.28.59-12.37C174,289.6,173.6,285.71,176,282.5Z"/><path class="cls-7" d="M212.15,371.2h2.6c0,6.67.47,13.26-.12,19.75-.78,8.73-2.42,17.38-3.62,26.08-.87,6.31-2,12.62-2.3,19-.23,4.67.57,9.41,1.09,14.1.4,3.62,1.17,7.19,1.61,10.8.37,3.06-2.33,5.14-5.38,4.91-5.95-.46-11.94-.87-17.91-.78a81.38,81.38,0,0,1-25-4c-3.91-1.19-8.12-1.4-12.2-2.06a1.59,1.59,0,0,1-1.2-.79,19.66,19.66,0,0,1,4.37-.65c5.77.45,11.54,1,17.29,1.68,6.17.69,12.33,1.55,18.49,2.26,4.69.53,9.4.94,14.1,1.39.72.06,1.45,0,2.45,0,0-2.4,0-4.62,0-6.83.15-9.62.16-19.24.53-28.85.24-6.28.92-12.56,1.54-18.83.69-6.92,1.6-13.82,2.31-20.74.48-4.62.77-9.25,1.15-13.88C212.06,373,212.1,372.15,212.15,371.2Z"/><path class="cls-3" d="M232.5,551.5c14-16,14.74-27.22,16.19-33.91.93-4.27,1.37-8.68,2.56-12.87A67.72,67.72,0,0,1,256,492.18c9.87-19.15,16.65-39.48,23-60,4-13.15,7.55-26.47,11.65-39.61,3.51-11.25,7.56-22.33,11.32-33.5,1.91-5.67,3.59-11.41,5.61-17,.93-2.6,14.65-29.11,15.95-31.57.17-.33,1.67-1,1,1-15,30-22,54.56-26.21,67.42-3.07,9.48-5.86,19.05-9,28.49q-8.21,24.43-16.76,48.76-4.23,12.1-8.9,24.05c-2.85,7.27-6.44,14.29-8.85,21.69-2,6.25-2.84,12.9-4.25,19.36-1,4.42-1.91,8.85-3.12,13.21-.37,1.33-11.05,16.81-11.87,18,0,0-1.28,2.42-2,2-2.13-1.24-20-13-20-13l3-12,1-2-3,13Z"/><path class="cls-3" d="M349.5,249.5c-7.36,19.78-17.5,43.57-24.84,63.29-2.31,0-2-1.12-1.59-2.29,2.25-5.89,4.53-11.76,6.76-17.66,4.38-11.56,8.69-23.15,13.1-34.7.68-1.79,4.7-8.92,5.57-10.64C348.9,247.68,349.1,249.32,349.5,249.5Z"/><path class="cls-8" d="M312,155.5a50.21,50.21,0,0,1-19.19,1.11c-6.06-.72-12.17-1-18.25-1.63-5.5-.54-11-1.3-16.47-1.85-4.52-.46-9-.75-13.58-1.12,1.5-.34,3-1,4.49-.95,5.68.32,11.35.88,17,1.35,4.35.36,8.71.71,13.07,1.09,7.39.64,14.78,1.39,22.18,1.9,2.7.19,5.44-.22,8.16-.27A15,15,0,0,1,312,155.5Z"/><path class="cls-9" d="M374.29,219.62c2.37-3,94.6-121.83,97.21-125.12.21.14,4.79-2.14,5-2-.94,1.7-95.78,121.43-96.81,123.06s-.63,2.89,1.07,3.82c7.3,4,14.54,8,21.89,11.86a7,7,0,0,0,4.28.46c3.13-.61,6.18-1.58,9.72-2.53-2,2.92-4.81,3.56-7.51,4.29-4.31,1.16-8.2-.36-11.86-2.37-5.6-3.06-11-6.43-16.66-9.45C378.79,220.65,376.6,220.33,374.29,219.62Z"/><path class="cls-3" d="M178,648.2c.34-2.47.58-5,1-7.4,1.78-9.26,3.45-18.54,5.54-27.72.73-3.22,2.53-6.2,3.89-9.27.14-.32.61-.48,1.4-1.07-.21,1.09-.31,1.66-.44,2.23-2,8.44-4.06,16.86-5.9,25.33-1.06,4.92-1.63,10-2.64,14.89-.25,1.2-1.37,2.23-2.09,3.33Z"/><path class="cls-10" d="M154,465c3.09,1,3.81,3.75,3.87,6.32.3,11.61.09,23.2-3.4,34.45-.36,1.15-.93,2.25-1.4,3.37l-.7-.13,1.11-7.52C155.74,489.36,156.28,477.2,154,465Z"/><path class="cls-3" d="M344.5,242c4.07,1.34,5.58,2.65,7.82,6.83a6.2,6.2,0,0,0,4.61-3.64c1.95-4,3.93-8,6-12,.55-1,10.76-12.78,11.55-13.69.21.13,1.79-.13,2,0-.73,1.75-12,14.86-12.81,16.58-1.52,3.23-3.15,6.41-4.67,9.64-1.61,3.42-1.67,6.71,1.07,9.69a1.91,1.91,0,0,1,.32.9c0,.13-.13.28-.33.7a55.1,55.1,0,0,1-4.68-3.92c-2.1-2.21-4-4.4-7.75-1.88,1.24-3.46-.41-5.5-2.53-7.42-.41-.37-.42-1.18-.62-1.79Z"/><path class="cls-3" d="M350.76,214.61a6.76,6.76,0,0,1-1.29-1.63c-.77-2-1.43-4.06-2.06-6.12a11.44,11.44,0,0,0-4.41-6.42c-.36-.25-14.5,16.06-14.5,16.06a9.37,9.37,0,0,1-1-1c-.07-.18,14.72-17.34,14.79-17.58,1.46-5.23,10.21-12.42-8.79-52.42.25,0,.75,0,1,0,7,12,13.89,39,13.52,39.75-3.45,7.19-1.49,14,1,20.88.95,2.6,1.73,5.27,2.58,7.91Z"/><path class="cls-3" d="M217.2,276.43c2.48-2.84,6-3.9,8.8-2.86s4.66,3.66,4.44,7.31a21.79,21.79,0,0,1-1.42,6.43c-1.3,3.3-1.26,6.25,1.07,9,.31.36.56.75.91,1.22-4.13.41-6.31-2.26-5.22-6.12.85-3,1.76-6,2.5-9.08.91-3.75-1.22-6.38-5.11-6.34C221.29,276,219.41,276.27,217.2,276.43Z"/><path class="cls-3" d="M108.15,286.93c3.77,2.09,4.08,5.28,4.08,8.55,0,3.07-.54,6.19-.1,9.18.37,2.57,1.8,5,2.83,7.67l-9.75-4.14a7.26,7.26,0,0,1,1.39-.67,3.58,3.58,0,0,0,3.34-4.18c-.39-4.76-1.09-9.5-1.65-14.25C108.21,288.46,108.2,287.83,108.15,286.93Z"/><path class="cls-11" d="M157.87,548.41c.94,11.2-2.14,20.91-7.73,25.06Z"/><path class="cls-10" d="M347.5,245.5c-2.6-1.11-20.2-18.59-20.45-20.61-.54-4.28-2.5-7.4-6.54-9.18-1.29-.57-35.83-15.43-37-16.21.12-.26.88-.74,1-1,.54.12,33.87,14.33,34.41,14.46,2.69.68,5.37,1.42,8.08,2,1.43.33,1.95.71,1.7,2.48-.46,3.34-.57,6.77,1,10,.24.47,15.81,15.05,15.81,15.05S347.4,245.15,347.5,245.5Z"/><path class="cls-8" d="M154,465c2.27,12.2,1.73,24.36-.52,36.49a33.26,33.26,0,0,1-.43-4.07c0-2.22.3-4.43.43-6.65a91.22,91.22,0,0,0,.45-9.62c-.24-5.4-.85-10.78-1.32-16.45Z"/><path class="cls-12" d="M251.6,287.57c-2.62,4.77-5.15,9.6-7.94,14.27-.44.74-2,1-3.09,1.12-3.34.35-5.4-1.79-7.24-4.41l4.11,1.37c3.72,1.23,4.95.71,6.94-2.63s4.23-6.85,6.35-10.26Z"/><path class="cls-8" d="M176,282.5c-2.4,3.21-2,7.1-2.41,10.73-.48,4.09-.41,8.25-.59,12.37-.16,3.47-.34,6.93-.5,10.39a11.5,11.5,0,0,1-.48-2.33q0-13.47,0-26.93C172,283.3,172.57,282.74,176,282.5Z"/><path class="cls-13" d="M137,663.51c.3-1.61.5-3.25,1-4.82.15-.52,1-.85,1.46-1.27l.85.78c-1.09,1.76-2.18,3.53-3.28,5.29Z"/><path class="cls-9" d="M373.39,222l-.74.94-.47-.31.7-1Z"/><path class="cls-3" d="M344.5,242l-.21-.11.21.11Z"/><path class="cls-13" d="M137,663.49l-.1.21.12-.19Z"/><path class="cls-14" d="M221.09,168.67s8.93-8.84,10.41-10.17,3,1,3,1l-12.3,9.78Z"/></g></g></svg>