<svg xmlns="http://www.w3.org/2000/svg" xmlns:xlink="http://www.w3.org/1999/xlink" viewBox="0 0 384 512"><defs><style>.cls-1{fill:url(#linear-gradient);}.cls-2{fill:#fff;}</style><linearGradient id="linear-gradient" x1="25.34" y1="96.97" x2="323.88" y2="338.72" gradientUnits="userSpaceOnUse"><stop offset="0" stop-color="#ffc701"/><stop offset="1" stop-color="#ef7b01"/></linearGradient></defs><title>Asset 33</title><g id="Layer_2" data-name="Layer 2"><g id="Layer_1-2" data-name="Layer 1"><path class="cls-1" d="M172.27,501.67C27,291,0,269.41,0,192,0,86,86,0,192,0S384,86,384,192c0,77.41-27,99-172.27,309.67a24,24,0,0,1-39.46,0Z"/><path class="cls-2" d="M192,54.33A127.67,127.67,0,1,0,319.67,182,127.67,127.67,0,0,0,192,54.33Zm-6.19,219.2c-22.44,0-41.4-5.87-51.55-12l8.28-30.71c7.21,4,23.77,10.68,40.33,10.68,21.1,0,31.78-10.15,31.78-23,0-17.36-17.09-25.1-35-25.1H163.1V164.3h16c13.62,0,30.71-5.34,30.71-20,0-10.42-8.28-18.16-25.64-18.16-14.15,0-29.11,6.14-36,10.41l-8.28-29.38c10.42-6.67,31-13.08,53.68-13.08,36.86,0,57.42,19.49,57.42,43.26,0,18.43-10.41,33.12-31.78,40.33v.54c20.83,3.73,37.66,19.49,37.66,42.46C256.85,251.1,229.87,273.53,185.81,273.53Z"/></g></g></svg>