<svg xmlns="http://www.w3.org/2000/svg" xmlns:xlink="http://www.w3.org/1999/xlink" viewBox="0 0 384 512"><defs><style>.cls-1{fill:url(#linear-gradient);}.cls-2{fill:#fff;}</style><linearGradient id="linear-gradient" x1="25.34" y1="96.97" x2="323.88" y2="338.72" gradientUnits="userSpaceOnUse"><stop offset="0" stop-color="#ffc701"/><stop offset="1" stop-color="#ef7b01"/></linearGradient></defs><title>Asset 31</title><g id="Layer_2" data-name="Layer 2"><g id="Layer_1-2" data-name="Layer 1"><path class="cls-1" d="M172.27,501.67C27,291,0,269.41,0,192,0,86,86,0,192,0S384,86,384,192c0,77.41-27,99-172.27,309.67a24,24,0,0,1-39.46,0Z"/><path class="cls-2" d="M192,54.33A127.67,127.67,0,1,0,319.67,182,127.67,127.67,0,0,0,192,54.33Zm26.4,216.26H179.14V133.05h-.53l-33.12,15.76-6.68-30.45L185,97H218.4Z"/></g></g></svg>