<svg xmlns="http://www.w3.org/2000/svg" xmlns:xlink="http://www.w3.org/1999/xlink" viewBox="0 0 384 512"><defs><style>.cls-1{fill:url(#linear-gradient);}.cls-2{fill:#fff;}</style><linearGradient id="linear-gradient" x1="25.34" y1="96.97" x2="323.88" y2="338.72" gradientUnits="userSpaceOnUse"><stop offset="0" stop-color="#ffc701"/><stop offset="1" stop-color="#ef7b01"/></linearGradient></defs><title>Asset 42</title><g id="Layer_2" data-name="Layer 2"><g id="Layer_1-2" data-name="Layer 1"><path class="cls-1" d="M172.27,501.67C27,291,0,269.41,0,192,0,86,86,0,192,0S384,86,384,192c0,77.41-27,99-172.27,309.67a24,24,0,0,1-39.46,0Z"/><path class="cls-2" d="M192,54.33A127.67,127.67,0,1,0,319.67,182,127.67,127.67,0,0,0,192,54.33Zm66.72,216.26H135.6V246l22.16-20c38.2-34.18,56.62-53.68,56.89-74,0-14.15-8.28-25.37-28.31-25.37-15,0-28,7.48-37.12,14.16L137.73,112c12.82-9.88,33.39-17.89,56.62-17.89,39.53,0,60.9,23,60.9,54.21,0,29.38-20.84,52.62-46.21,75l-16,13.36v.53h65.7Z"/></g></g></svg>